<svg version="1.1" id="Layer_1" xmlns="http://www.w3.org/2000/svg" xmlns:xlink="http://www.w3.org/1999/xlink" x="0px" y="0px"
	 width="100%" viewBox="0 0 944 1024" enable-background="new 0 0 944 1024" xml:space="preserve">
<path fill="#000000" opacity="1.000000" stroke="none" 
	d="
M473.857849,551.161133 
	C478.421448,556.429260 482.737671,561.446167 487.342072,566.798096 
	C491.798828,561.635681 495.845032,556.616028 500.235443,551.917908 
	C526.407715,523.911499 557.877075,505.203979 596.032776,499.239685 
	C618.459839,495.734009 640.876892,497.792114 663.120728,502.099335 
	C689.327148,507.173859 714.715942,515.368652 740.517822,521.982300 
	C758.570862,526.609741 776.544250,531.582336 795.098389,534.007263 
	C802.974915,535.036682 805.876343,537.949890 805.242004,543.031067 
	C804.592346,548.234741 800.327759,550.456787 792.773071,549.354553 
	C768.990540,545.884827 745.828735,539.736572 722.709229,533.319458 
	C694.642700,525.529175 666.681274,517.184204 637.575806,513.932312 
	C603.292236,510.101929 571.678955,517.387268 543.030334,536.821777 
	C539.312073,539.344116 535.745056,542.090271 532.129211,544.761536 
	C531.767761,545.028625 531.554749,545.496582 530.591553,546.777100 
	C547.572205,537.815552 564.268005,530.962036 581.930786,526.679077 
	C604.204102,521.278137 626.752686,520.553284 649.416260,523.286987 
	C687.330933,527.860413 723.394348,540.028503 759.898132,550.417114 
	C779.110352,555.884766 798.429565,561.067810 818.277405,563.767395 
	C824.487488,564.612000 828.379639,567.186890 830.691895,573.421204 
	C834.755432,584.377991 843.635193,589.880798 855.362366,589.775391 
	C860.422302,589.729919 865.303101,589.950500 869.800293,592.754089 
	C879.928284,599.067932 879.721619,613.259827 869.336914,619.124939 
	C864.820740,621.675537 859.891724,622.090759 854.831848,622.089539 
	C754.334595,622.064331 653.837341,622.091980 553.340149,621.980225 
	C548.491943,621.974792 545.213013,622.969421 542.060242,627.231079 
	C534.170288,637.896118 522.679138,643.308350 509.765106,643.866089 
	C493.494720,644.568787 477.098572,645.448120 460.868439,643.224182 
	C449.250885,641.632324 439.217072,636.454468 432.238495,626.704712 
	C429.703918,623.163696 426.940369,621.980835 422.667725,621.985413 
	C321.837250,622.093384 221.006638,622.064941 120.176048,622.064880 
	C117.175629,622.064880 114.194237,622.045166 111.226784,621.401184 
	C102.606667,619.530701 97.055267,612.835449 97.614479,604.847534 
	C98.167419,596.949097 104.684036,590.653870 113.164589,589.910950 
	C114.985672,589.751465 116.847557,589.659424 118.658554,589.846619 
	C132.080261,591.234070 139.307098,583.167542 144.286682,572.476501 
	C146.475800,567.776550 149.017899,565.062500 154.337631,564.228882 
	C191.812744,558.356812 227.625351,545.959656 264.083221,536.066589 
	C292.224213,528.430359 320.569214,521.791931 350.041565,521.777893 
	C382.805756,521.762207 413.186707,530.417786 441.781403,546.010559 
	C442.510498,546.408142 443.245483,546.795593 443.989105,547.164856 
	C444.115173,547.227539 444.299072,547.173767 444.543823,547.173767 
	C444.735229,545.703186 443.417877,545.316650 442.632690,544.696228 
	C411.781219,520.320435 377.015289,509.509277 337.645844,513.932190 
	C312.528595,516.754028 288.284363,523.286926 264.050262,530.028381 
	C238.386093,537.167603 212.776260,544.556030 186.395874,548.725891 
	C183.602417,549.167480 180.794861,549.724426 177.982758,549.796814 
	C173.409241,549.914551 169.953964,546.954041 169.497330,542.942078 
	C169.017914,538.730042 171.445404,535.408386 176.306793,534.690918 
	C216.153915,528.810486 254.203629,515.617920 293.166260,506.150146 
	C313.916687,501.107819 334.887421,497.604309 356.384918,497.648132 
	C391.760895,497.720215 422.923706,509.556122 450.912018,530.605469 
	C459.047241,536.723755 466.682648,543.428345 473.857849,551.161133 
M332.861664,538.206299 
	C308.834778,541.133118 285.306488,546.413940 262.082489,553.150513 
	C228.825867,562.797180 195.790497,573.305420 161.575470,579.246216 
	C159.030106,579.688232 158.141006,581.392639 156.944489,583.258850 
	C148.610458,596.258057 138.558807,606.622009 121.352684,605.667236 
	C122.476921,605.850281 123.571083,605.850586 124.665237,605.850281 
	C173.161591,605.837402 221.657944,605.816345 270.154297,605.813538 
	C323.651306,605.810425 377.148346,605.854736 430.645264,605.780884 
	C435.748169,605.773865 439.647308,606.887451 441.962006,612.012207 
	C446.525513,622.116028 454.903687,627.280823 465.664062,627.642639 
	C480.144623,628.129517 494.664917,628.094971 509.147369,627.632568 
	C518.863281,627.322449 527.293579,623.049561 531.571472,614.078735 
	C534.811096,607.285095 539.349121,605.709167 546.207397,605.719177 
	C640.868530,605.857117 735.529968,605.805969 830.191284,605.801086 
	C834.074402,605.800903 837.957520,605.801025 842.970154,605.801025 
	C831.330566,600.027893 822.384583,593.080994 816.983765,582.330261 
	C815.870239,580.113770 814.037231,579.528442 811.768616,579.095032 
	C803.920837,577.595703 796.089294,575.988953 788.299194,574.214172 
	C760.189331,567.809692 732.761353,558.926331 705.040710,551.111389 
	C685.936096,545.725403 666.577576,541.231506 646.964172,538.796387 
	C633.198059,537.087219 619.069336,537.429382 605.089966,539.028259 
	C562.940979,543.848694 527.804993,562.793152 498.046844,592.276611 
	C487.097198,603.125183 487.280548,603.352051 476.686127,592.524292 
	C453.087799,568.406311 424.887329,552.020447 392.337341,543.094849 
	C373.119934,537.825195 353.476807,537.816650 332.861664,538.206299 
z"/>
<path fill="#000000" opacity="1.000000" stroke="none" 
	d="
M495.286499,370.833374 
	C495.204468,372.968628 495.403961,374.704559 494.983704,376.274567 
	C493.916229,380.262329 491.258820,382.619690 486.996765,382.377838 
	C482.750305,382.136902 480.338013,379.630951 479.817566,375.429352 
	C479.634338,373.950195 479.722473,372.434814 479.722260,370.935974 
	C479.714691,312.953857 479.710236,254.971725 479.708282,196.989609 
	C479.707977,188.788162 482.285309,184.934586 487.683990,185.031311 
	C492.755768,185.122177 495.270935,189.043121 495.271912,196.911880 
	C495.279053,254.727402 495.281738,312.542938 495.286499,370.833374 
z"/>
<path fill="#000000" opacity="1.000000" stroke="none" 
	d="
M574.684570,285.585846 
	C566.111511,317.296021 557.658203,348.616791 549.195007,379.934875 
	C547.077271,387.771576 543.938599,390.460754 538.749329,388.943420 
	C533.206543,387.322662 532.018372,383.768127 534.127502,375.942810 
	C547.983093,324.535553 561.799438,273.117767 575.641602,221.706924 
	C576.073181,220.104034 576.396423,218.395401 577.205872,216.986328 
	C579.053040,213.770737 582.007080,212.364975 585.659912,213.177460 
	C589.149780,213.953705 591.102051,216.377060 591.248535,219.934525 
	C591.322266,221.725555 591.028320,223.590225 590.571838,225.335602 
	C585.351440,245.298477 580.067627,265.244751 574.684570,285.585846 
z"/>
<path fill="#000000" opacity="1.000000" stroke="none" 
	d="
M425.307495,318.810669 
	C430.793854,339.133789 436.192444,359.055145 441.573395,378.981323 
	C442.881714,383.826263 440.735870,387.503693 435.854340,388.892639 
	C431.489685,390.134521 428.040497,388.069916 426.644409,382.918243 
	C419.720490,357.368408 412.900574,331.790405 406.039001,306.223663 
	C398.702179,278.886108 391.346924,251.553436 384.028656,224.210892 
	C382.155243,217.211456 385.927307,211.972076 392.121704,212.908600 
	C396.169373,213.520569 397.922546,216.381638 398.887360,220.014221 
	C404.996765,243.016434 411.117126,266.015747 417.259125,289.009277 
	C419.879211,298.818085 422.560028,308.610718 425.307495,318.810669 
z"/>
<path fill="#000000" opacity="1.000000" stroke="none" 
	d="
M612.069641,349.117126 
	C627.675842,322.117310 643.094910,295.432068 658.520325,268.750427 
	C659.186890,267.597351 659.839050,266.424988 660.621826,265.352081 
	C663.490967,261.419617 667.499634,260.360046 671.006287,262.543121 
	C674.887756,264.959656 676.022034,269.054504 673.593750,273.337006 
	C664.145996,289.998535 654.617371,306.614563 645.056396,323.211548 
	C629.424438,350.346985 613.724670,377.443329 598.112549,404.590149 
	C596.534973,407.333252 594.691162,409.511047 591.428406,410.048401 
	C588.553650,410.521881 586.061890,409.663635 584.340332,407.342377 
	C581.988586,404.171448 582.272705,400.778656 584.169861,397.484131 
	C591.900696,384.059357 599.661133,370.651611 607.407410,357.235748 
	C608.906799,354.638824 610.391968,352.033722 612.069641,349.117126 
z"/>
<path fill="#000000" opacity="1.000000" stroke="none" 
	d="
M307.102051,260.996826 
	C311.064972,261.140594 313.200104,263.308075 314.867828,266.197571 
	C334.437744,300.104706 354.015198,334.007538 373.600220,367.905914 
	C379.183319,377.569305 384.831635,387.195160 390.383179,396.876556 
	C393.166107,401.729706 392.614899,405.890533 389.037872,408.467743 
	C384.750183,411.556915 380.295807,410.287903 377.043396,404.786926 
	C370.938599,394.461639 364.928497,384.079773 358.940674,373.685913 
	C339.812805,340.483124 320.690277,307.277191 301.622528,274.039856 
	C297.959167,267.654144 299.675201,263.514221 307.102051,260.996826 
z"/>
<path fill="#000000" opacity="1.000000" stroke="none" 
	d="
M793.951599,411.745117 
	C786.629761,417.951172 778.255615,421.797699 770.368347,426.384430 
	C737.841492,445.299896 705.176208,463.977173 672.559998,482.738953 
	C671.550171,483.319855 670.547485,483.923126 669.496216,484.420135 
	C665.203247,486.449524 661.258545,485.425598 659.074890,481.755371 
	C656.807861,477.945282 657.868408,473.623383 662.046997,471.015503 
	C667.271729,467.754791 672.640381,464.722809 677.972168,461.635742 
	C712.264099,441.780945 746.562500,421.937317 780.861389,402.094421 
	C781.870056,401.510864 782.916443,400.992737 783.929016,400.415710 
	C787.542175,398.356750 791.080200,398.452515 793.987427,401.476318 
	C796.967041,404.575317 796.650330,408.075531 793.951599,411.745117 
z"/>
<path fill="#000000" opacity="1.000000" stroke="none" 
	d="
M226.292465,438.766083 
	C212.569611,430.854828 199.181030,423.097778 185.751526,415.412201 
	C179.272659,411.704376 177.173019,407.478333 179.660294,402.737732 
	C182.113022,398.062988 186.535629,397.663818 193.539124,401.716705 
	C214.705261,413.965454 235.825760,426.293060 256.983002,438.557220 
	C274.976135,448.987213 292.981995,459.395569 311.015167,469.756104 
	C314.544769,471.783966 317.459717,474.164642 316.830750,478.695282 
	C316.050018,484.318787 309.990417,486.901276 304.460785,483.795166 
	C292.276123,476.950653 280.200226,469.912231 268.093475,462.929443 
	C254.257919,454.949524 240.437119,446.944031 226.292465,438.766083 
z"/>
<path fill="#000000" opacity="1.000000" stroke="none" 
	d="
M709.540405,347.539276 
	C715.322510,341.748749 720.828308,336.181641 726.394470,330.675476 
	C730.743164,326.373657 735.151978,325.930176 738.730530,329.321045 
	C742.279175,332.683594 741.921204,337.240936 737.582642,341.573181 
	C711.783813,367.334106 685.948425,393.058441 660.141113,418.810883 
	C653.307007,425.630371 646.531311,432.508392 639.723511,439.354279 
	C635.403442,443.698608 630.349365,444.059937 627.096741,440.269623 
	C623.955933,436.609589 624.410889,432.816498 628.775330,428.408966 
	C641.550781,415.507660 654.368286,402.647919 667.201172,389.803711 
	C681.212280,375.780243 695.258911,361.792358 709.540405,347.539276 
z"/>
<path fill="#000000" opacity="1.000000" stroke="none" 
	d="
M270.984070,375.013367 
	C259.275757,363.404572 247.799881,352.066101 236.410400,340.641479 
	C232.972488,337.192963 232.853409,332.565491 235.822617,329.456421 
	C239.200851,325.918976 243.717484,325.928345 247.710800,329.862946 
	C258.141815,340.140564 268.455811,350.537079 278.804016,360.898621 
	C301.146301,383.269653 323.465790,405.663544 345.838470,428.004120 
	C348.466583,430.628448 350.387238,433.340302 349.165100,437.258118 
	C347.382111,442.973907 340.628235,444.379303 335.908447,439.777283 
	C326.497009,430.600800 317.239441,421.266235 307.940155,411.975128 
	C295.698975,399.744659 283.478851,387.493134 270.984070,375.013367 
z"/>
</svg>